<?xml version="1.0" standalone="no"?>
<!DOCTYPE svg PUBLIC "-//W3C//DTD SVG 20010904//EN"
 "http://www.w3.org/TR/2001/REC-SVG-20010904/DTD/svg10.dtd">
<svg version="1.0" xmlns="http://www.w3.org/2000/svg"
 width="400.000000pt" height="400.000000pt" viewBox="0 0 400.000000 400.000000"
 preserveAspectRatio="xMidYMid meet">

<g transform="translate(0.000000,400.000000) scale(0.100000,-0.100000)"
fill="#004798" stroke="none">
<path d="M2435 3994 c-204 -11 -503 -83 -647 -155 l-38 -19 0 -201 c0 -182 -2
-201 -16 -195 -47 18 -200 58 -274 72 -117 22 -423 30 -547 14 -204 -25 -391
-78 -570 -160 l-93 -43 0 -1499 c0 -1425 1 -1500 17 -1493 38 14 242 67 328
85 296 61 677 60 1005 -1 164 -31 249 -56 478 -141 443 -163 785 -237 1172
-254 157 -7 372 12 501 43 l69 16 0 289 c0 158 -2 288 -5 288 -3 0 -27 -11
-53 -24 -55 -28 -243 -79 -357 -97 -119 -19 -472 -17 -623 4 -226 32 -452 86
-727 173 -303 97 -606 144 -940 144 -164 0 -224 -4 -412 -25 l-63 -8 0 1125
c0 889 3 1128 13 1136 18 15 191 52 293 62 248 26 519 -5 754 -87 l55 -19 3
-1117 2 -1116 95 49 c95 48 222 94 343 124 208 52 535 48 827 -9 85 -17 295
-76 353 -101 19 -8 36 -14 38 -14 2 0 4 672 4 1494 l0 1495 -82 32 c-103 39
-316 93 -453 113 -108 16 -331 26 -450 20z m425 -414 c36 -6 89 -15 118 -21
l52 -10 0 -1110 c0 -610 -3 -1109 -7 -1109 -5 0 -51 7 -103 16 -132 21 -458
29 -602 15 -65 -6 -179 -27 -255 -46 -76 -19 -139 -35 -140 -35 -2 0 -3 418
-3 929 l0 930 55 20 c320 120 405 124 457 20 15 -29 18 -62 18 -215 0 -219 0
-219 -132 -248 -28 -6 -28 -6 -28 -95 l0 -88 69 5 c61 4 70 2 79 -15 11 -20
14 -91 13 -341 l-1 -154 -29 -28 c-21 -21 -42 -31 -80 -36 l-51 -7 0 -83 0
-84 58 6 c144 15 230 65 254 148 9 28 13 127 13 321 0 312 -5 339 -64 370
l-32 16 36 33 c60 57 65 81 65 315 0 232 -9 281 -62 346 -63 75 -186 110 -310
85 -75 -14 -351 -103 -427 -136 -29 -13 -57 -24 -62 -24 -5 0 -9 33 -9 74 l0
73 80 37 c149 68 305 113 465 135 88 12 478 6 565 -9z"/>
<path d="M2730 2573 l0 -890 -222 -7 c-123 -3 -238 -9 -255 -12 l-33 -6 0 730
0 730 -58 -17 c-31 -10 -67 -23 -80 -30 l-22 -12 0 -801 0 -800 23 6 c133 39
377 60 596 53 97 -3 184 -9 194 -12 16 -7 17 43 17 963 l0 970 -22 5 c-13 3
-49 9 -80 12 l-58 7 0 -889z"/>
</g>
</svg>
